<svg xmlns="http://www.w3.org/2000/svg" xmlns:xlink="http://www.w3.org/1999/xlink" viewBox="0 0 500 500" width="338" height="338" preserveAspectRatio="xMidYMid meet" style="width: 100%; height: 100%; transform: translate3d(0px, 0px, 0px); content-visibility: visible; background-color: transparent;"><defs><clipPath id="__lottie_element_2"><rect width="500" height="500" x="0" y="0"/></clipPath></defs><g clip-path="url(#__lottie_element_2)"><g transform="matrix(1,0,0,1,250,250)" opacity="1" style="display: block;"><g opacity="1" transform="matrix(1,0,0,1,0,0)"><path stroke-linecap="round" stroke-linejoin="round" fill-opacity="0" stroke="rgb(51,51,51)" stroke-opacity="1" stroke-width="21" d=" M-155,76 C-155,76 -155,-138 -155,-138 C-155,-138 153,-138 153,-138 C153,-138 153,140 153,140 C153,140 -154,140 -154,140 C-154,140 -73,-4 -73,-4 C-73,-4 -2,64 -2,64 C-2,64 47,20 47,20 C47,20 125,105 125,105"/></g></g><g transform="matrix(1,0,0,1,250,250)" opacity="1" style="display: block;"><g opacity="1" transform="matrix(0.6917499899864197,0,0,0.6917499899864197,77.36199951171875,-58.689998626708984)"><path stroke-linecap="round" stroke-linejoin="round" fill-opacity="0" stroke="rgb(51,51,51)" stroke-opacity="1" stroke-width="21" d=" M-35.69599914550781,5.01200008392334 C-35.92399978637695,3.374000072479248 -36.04199981689453,1.7000000476837158 -36.04199981689453,0 C-36.04249954223633,-19.891855239868164 -19.891855239868164,-36.04249954223633 0,-36.04249954223633 C0,-36.04249954223633 0,-36.04249954223633 0,-36.04249954223633 C19.891855239868164,-36.04249954223633 36.04249954223633,-19.891855239868164 36.04249954223633,0 C36.04249954223633,19.891855239868164 19.891855239868164,36.04249954223633 0,36.04249954223633 C-18.19099998474121,36.04199981689453 -33.25400161743164,22.53499984741211 -35.69599914550781,5.01200008392334"/></g></g></g></svg>