<svg width="31" height="30" viewBox="0 0 31 30" fill="none" xmlns="http://www.w3.org/2000/svg">
<path fill-rule="evenodd" clip-rule="evenodd" d="M26.9722 0.660124C26.9298 0.426875 26.7257 0.25 26.4802 0.25C26.2041 0.25 25.9802 0.473858 25.9802 0.75L25.9747 0.900285C25.9747 2.25 25.42 2.74554 24.1295 2.75102L23.8939 2.75876C23.6699 2.79942 23.5 2.99549 23.5 3.23124V3.2708C23.5 3.53602 23.715 3.75102 23.9802 3.75102L24.38 3.75651C25.4223 3.75651 25.9747 4.3 25.9802 5.60176L25.9883 5.84148C26.0306 6.07473 26.2348 6.2516 26.4802 6.2516C26.7564 6.2516 26.9802 6.02774 26.9802 5.7516L26.9857 5.60176C26.9857 4.31 27.5256 3.75102 28.58 3.75102H29.0013C29.2774 3.75102 29.5013 3.52716 29.5013 3.25102C29.5013 2.97488 29.2774 2.75102 29.0013 2.75102L28.58 2.74554C27.5412 2.74554 26.9857 2.25 26.9802 0.900285L26.9722 0.660124ZM19.746 1.65116C14.557 -0.287469 8.65975 0.937813 4.67367 4.9239C-0.891304 10.4889 -0.891304 19.5115 4.67367 25.0764C10.2386 30.6414 19.2612 30.6414 24.8262 25.0764C26.1664 23.7362 27.2089 22.1696 27.9185 20.4547C28.6342 18.7251 28.9999 16.8703 28.9999 15.0002C28.9999 13.1301 28.6342 11.2752 27.9185 9.54568C27.7602 9.16293 27.3215 8.98104 26.9388 9.1394C26.556 9.29777 26.3741 9.73643 26.5325 10.1192C27.1726 11.6662 27.4999 13.3261 27.4999 15.0002C27.4999 16.6742 27.1726 18.3341 26.5325 19.8812C25.898 21.4147 24.9657 22.8156 23.7656 24.0158C18.7864 28.995 10.7135 28.995 5.73433 24.0158C0.755143 19.0366 0.755143 10.9637 5.73433 5.98456C9.30114 2.41775 14.5776 1.32146 19.221 3.0563C19.609 3.20126 20.0411 3.00423 20.1861 2.61621C20.331 2.2282 20.134 1.79613 19.746 1.65116ZM19.808 19.4789C19.5348 19.1676 19.0609 19.1368 18.7496 19.4101C17.3708 20.6204 15.9249 21.2125 14.3879 21.2125C12.8923 21.2125 11.7456 20.6569 10.8795 19.5194C10.6286 19.1898 10.158 19.1261 9.82845 19.377C9.49888 19.6279 9.43512 20.0985 9.68604 20.428C10.8389 21.9422 12.4288 22.7125 14.3879 22.7125C16.3054 22.7125 18.0972 21.9787 19.7392 20.5374C20.0505 20.2641 20.0813 19.7902 19.808 19.4789ZM9.75001 12.25C10.7165 12.25 11.5 13.0335 11.5 14C11.5 14.9665 10.7165 15.75 9.75001 15.75C8.78351 15.75 8.00001 14.9665 8.00001 14C8.00001 13.0335 8.78351 12.25 9.75001 12.25ZM21.5 14C21.5 13.0335 20.7165 12.25 19.75 12.25C18.7835 12.25 18 13.0335 18 14C18 14.9665 18.7835 15.75 19.75 15.75C20.7165 15.75 21.5 14.9665 21.5 14ZM21.9802 4.75C22.2257 4.75 22.4298 4.92688 22.4722 5.16012L22.4802 5.65C22.4802 6.70436 23.0461 7.16919 24.081 7.24554L24.5013 7.25102C24.7774 7.25102 25.0013 7.47488 25.0013 7.75102C25.0013 8.02716 24.7774 8.25102 24.5013 8.25102H24.13C23.0756 8.25102 22.5621 8.8169 22.4857 9.85176L22.4802 10.2516C22.4802 10.5277 22.2564 10.7516 21.9802 10.7516C21.7348 10.7516 21.5306 10.5747 21.4883 10.3415L21.4802 9.86917C21.4802 8.81481 20.9149 8.33286 19.88 8.25651L19.4802 8.25102C19.215 8.25102 19 8.03602 19 7.7708V7.73124C19 7.49549 19.1699 7.29942 19.3939 7.25876L19.88 7.25102C20.9344 7.25102 21.4747 6.69731 21.4747 5.65L21.4802 5.25C21.4802 4.97386 21.7041 4.75 21.9802 4.75Z" fill="#747474"/>
</svg>
